<svg width="44" height="44" viewBox="0 0 44 44" fill="none" xmlns="http://www.w3.org/2000/svg">
<path d="M28.5633 21.9999C28.5633 25.6299 25.63 28.5632 22 28.5632C18.37 28.5632 15.4366 25.6299 15.4366 21.9999C15.4366 18.3699 18.37 15.4365 22 15.4365C25.63 15.4365 28.5633 18.3699 28.5633 21.9999Z" stroke="black" stroke-width="2.5" stroke-linecap="round" stroke-linejoin="round"/>
<path d="M22 37.1615C28.4716 37.1615 34.5033 33.3482 38.7016 26.7482C40.3516 24.1632 40.3516 19.8182 38.7016 17.2332C34.5033 10.6332 28.4716 6.81982 22 6.81982C15.5283 6.81982 9.49662 10.6332 5.29829 17.2332C3.64829 19.8182 3.64829 24.1632 5.29829 26.7482C9.49662 33.3482 15.5283 37.1615 22 37.1615Z" stroke="black" stroke-width="2.5" stroke-linecap="round" stroke-linejoin="round"/>
</svg>
