<svg width="44" height="44" viewBox="0 0 44 44" fill="none" xmlns="http://www.w3.org/2000/svg">
<path d="M38.5 10.9634C32.395 10.3584 26.2533 10.0467 20.13 10.0467C16.5 10.0467 12.87 10.2301 9.24 10.5967L5.5 10.9634M15.5833 9.11175L15.9867 6.71008C16.28 4.96841 16.5 3.66675 19.5983 3.66675H24.4017C27.5 3.66675 27.7383 5.04175 28.0133 6.72841L28.4167 9.11175M34.5583 16.7567L33.3667 35.2184C33.165 38.0967 33 40.3334 27.885 40.3334H16.115C11 40.3334 10.835 38.0967 10.6333 35.2184L9.44167 16.7567M18.9383 30.2501H25.0433M17.4167 22.9167H26.5833" stroke="black" stroke-width="2.5" stroke-linecap="round" stroke-linejoin="round"/>
</svg>
